<svg id="View--Streamline-Carbon" xmlns="http://www.w3.org/2000/svg" viewBox="0 0 16 16" height="16" width="16">
<rect width="100%" height="100%" fill="black"/>
  <desc>
    View Streamline Icon: https://streamlinehq.com
  </desc>
  <defs></defs>
  <title>view</title>
  <path d="M15.47 7.83A8.345 8.345 0 0 0 8 2.5 8.345 8.345 0 0 0 0.53 7.83a0.5 0.5 0 0 0 0 0.34A8.345 8.345 0 0 0 8 13.5a8.345 8.345 0 0 0 7.47 -5.33 0.5 0.5 0 0 0 0 -0.34ZM8 12.5c-2.65 0 -5.45 -1.965 -6.465 -4.5C2.55 5.465 5.35 3.5 8 3.5s5.45 1.965 6.465 4.5C13.45 10.535 10.65 12.5 8 12.5Z" fill="white" stroke-width="0.5"></path>
  <path d="M8 5a3 3 0 1 0 3 3 3 3 0 0 0 -3 -3Zm0 5a2 2 0 1 1 2 -2 2 2 0 0 1 -2 2Z" fill="white" stroke-width="0.5"></path>
  <path id="_Transparent_Rectangle_" d="M0 0h16v16H0Z" fill="none" stroke-width="0.5"></path>
</svg>